<?xml version="1.0" encoding="utf-8"?>
<!-- Generator: Adobe Illustrator 24.1.2, SVG Export Plug-In . SVG Version: 6.00 Build 0)  -->
<svg version="1.1" id="Layer_1" xmlns="http://www.w3.org/2000/svg" xmlns:xlink="http://www.w3.org/1999/xlink" x="0px" y="0px"
	 viewBox="0 0 300 150" style="enable-background:new 0 0 300 150;" xml:space="preserve">
<style type="text/css">
	.st0{fill:#DBEEE2;}
	.st1{fill:#9BD3B4;}
	.st2{fill:#29B270;}
</style>
<g>
	<polygon class="st0" points="133.9,80.7 114,71.4 114,51.6 133.9,60.9 	"/>
	<polygon class="st0" points="158.1,80 138.2,70.6 138.2,50.8 158.1,60.1 	"/>
	<polygon class="st0" points="182.3,80 162.5,70.6 162.5,50.8 182.3,60.1 	"/>
	<polygon class="st1" points="158.1,55.4 138.2,46.1 138.2,26.3 158.1,35.6 	"/>
	<polygon class="st1" points="182.3,55.4 162.5,46.1 162.5,26.3 182.3,35.6 	"/>
	<polygon class="st2" points="182.3,30.9 162.5,21.6 162.5,1.7 182.3,11.1 	"/>
</g>
<g>
	<path class="st2" d="M44,105c0.8-0.7,1.8-1.1,3.1-1.1s2.3,0.3,3.1,1.1c0.8,0.7,1.2,1.6,1.2,2.7c0,1.1-0.4,2-1.2,2.7
		c-0.8,0.7-1.8,1.1-3.1,1.1s-2.3-0.3-3.1-1.1c-0.8-0.7-1.2-1.6-1.2-2.7C42.8,106.6,43.2,105.7,44,105z M50.6,115.5v27.2h-7v-27.2
		H50.6z"/>
	<path class="st2" d="M78.9,118.2c1.9,2.1,2.8,5,2.8,8.7v15.8h-6.9v-15c0-2.2-0.6-3.8-1.7-5c-1.1-1.2-2.6-1.8-4.6-1.8
		c-2,0-3.5,0.6-4.7,1.9s-1.8,3.1-1.8,5.5v14.4h-6.9v-27.2h7v5.4c0.7-1.8,1.9-3.3,3.6-4.3c1.7-1,3.6-1.5,5.7-1.5
		C74.5,115.1,77.1,116.2,78.9,118.2z"/>
	<path class="st2" d="M102.7,116.8c1.6,1.1,2.8,2.5,3.5,4.4v-14.8h6.9v36.3h-6.9V137c-0.7,1.8-1.9,3.3-3.5,4.4s-3.6,1.6-5.9,1.6
		c-2.3,0-4.4-0.6-6.2-1.7c-1.8-1.1-3.3-2.7-4.3-4.8c-1-2.1-1.6-4.6-1.6-7.4c0-2.8,0.5-5.3,1.6-7.4s2.5-3.7,4.3-4.8
		c1.8-1.1,3.9-1.7,6.2-1.7C99.1,115.2,101,115.7,102.7,116.8z M93.7,123.3c-1.3,1.4-2,3.3-2,5.8c0,2.5,0.7,4.4,2,5.8
		c1.3,1.4,3.1,2.1,5.2,2.1c2.1,0,3.8-0.7,5.2-2.1c1.4-1.4,2-3.3,2-5.7c0-2.4-0.7-4.3-2-5.8c-1.4-1.4-3.1-2.1-5.2-2.1
		C96.8,121.2,95,121.9,93.7,123.3z"/>
	<path class="st2" d="M118,105c0.8-0.7,1.8-1.1,3.1-1.1c1.3,0,2.3,0.3,3.1,1.1c0.8,0.7,1.2,1.6,1.2,2.7c0,1.1-0.4,2-1.2,2.7
		c-0.8,0.7-1.8,1.1-3.1,1.1c-1.3,0-2.3-0.3-3.1-1.1c-0.8-0.7-1.2-1.6-1.2-2.7C116.8,106.6,117.2,105.7,118,105z M124.6,115.5v27.2
		h-7v-27.2H124.6z"/>
	<path class="st2" d="M150.2,118c2.4,1.9,3.8,4.5,4.4,7.8h-7.3c-0.3-1.4-1-2.6-2-3.4c-1.1-0.8-2.4-1.3-4-1.3c-1.8,0-3.4,0.7-4.6,2
		c-1.2,1.4-1.8,3.3-1.8,6c0,2.6,0.6,4.6,1.8,6c1.2,1.4,2.8,2,4.6,2c1.6,0,2.9-0.4,4-1.3c1.1-0.8,1.7-2,2-3.4h7.3
		c-0.6,3.3-2.1,5.9-4.4,7.8c-2.4,1.9-5.3,2.8-8.8,2.8c-2.7,0-5-0.6-7.1-1.7c-2.1-1.1-3.7-2.7-4.8-4.8c-1.1-2.1-1.7-4.6-1.7-7.4
		c0-2.8,0.6-5.3,1.7-7.4c1.1-2.1,2.8-3.7,4.8-4.8c2.1-1.1,4.4-1.7,7.1-1.7C144.9,115.2,147.9,116.1,150.2,118z"/>
	<path class="st2" d="M174.4,116.8c1.6,1.1,2.8,2.5,3.5,4.4v-5.6h6.9v27.2h-6.9V137c-0.7,1.8-1.9,3.3-3.5,4.4s-3.6,1.6-5.9,1.6
		c-2.3,0-4.4-0.6-6.2-1.7c-1.8-1.1-3.3-2.7-4.3-4.8c-1-2.1-1.6-4.6-1.6-7.4c0-2.8,0.5-5.3,1.6-7.4c1-2.1,2.5-3.7,4.3-4.8
		c1.8-1.1,3.9-1.7,6.2-1.7C170.8,115.2,172.8,115.7,174.4,116.8z M165.4,123.3c-1.3,1.4-2,3.3-2,5.8c0,2.5,0.7,4.4,2,5.8
		c1.3,1.4,3.1,2.1,5.2,2.1c2.1,0,3.8-0.7,5.2-2.1c1.4-1.4,2-3.3,2-5.7c0-2.4-0.7-4.3-2-5.8c-1.4-1.4-3.1-2.1-5.2-2.1
		C168.5,121.2,166.7,121.9,165.4,123.3z"/>
	<path class="st2" d="M203.9,136.8v5.9h-3.7c-3.1,0-5.4-0.7-7-2.2s-2.4-3.9-2.4-7.4v-11.8H187v-5.8h3.8v-6.7h7v6.7h6.1v5.8h-6.1
		v11.9c0,1.3,0.3,2.2,0.8,2.7s1.4,0.8,2.7,0.8H203.9z"/>
	<path class="st2" d="M226.9,116.8c2.1,1.1,3.8,2.7,5,4.8c1.2,2.1,1.8,4.6,1.8,7.4c0,2.8-0.6,5.3-1.8,7.4s-2.9,3.7-5,4.8
		c-2.1,1.1-4.5,1.7-7.2,1.7s-5.1-0.6-7.2-1.7c-2.1-1.1-3.8-2.7-5-4.8c-1.2-2.1-1.8-4.6-1.8-7.4c0-2.8,0.6-5.3,1.8-7.4
		c1.2-2.1,2.9-3.7,5-4.8c2.1-1.1,4.5-1.7,7.2-1.7S224.8,115.7,226.9,116.8z M214.8,123.2c-1.3,1.4-2,3.3-2,5.9c0,2.6,0.7,4.6,2,5.9
		c1.3,1.4,3,2,4.9,2c1.9,0,3.6-0.7,4.9-2c1.3-1.4,2-3.3,2-5.9c0-2.6-0.7-4.6-2-5.9c-1.3-1.4-3-2-4.9-2
		C217.8,121.1,216.2,121.8,214.8,123.2z"/>
	<path class="st2" d="M247.9,116.6c1.7-1,3.5-1.5,5.6-1.5v7.4h-2c-5.1,0-7.6,2.4-7.6,7.1v13.1h-7v-27.2h7v5.2
		C244.9,119,246.2,117.6,247.9,116.6z"/>
</g>
</svg>
