<?xml version="1.0" encoding="utf-8"?>
<!-- Generator: Adobe Illustrator 24.1.1, SVG Export Plug-In . SVG Version: 6.00 Build 0)  -->
<svg version="1.1" id="Layer_1" xmlns="http://www.w3.org/2000/svg" xmlns:xlink="http://www.w3.org/1999/xlink" x="0px" y="0px"
	 viewBox="0 0 300 70" style="enable-background:new 0 0 300 70;" xml:space="preserve">
<style type="text/css">
	.st0{display:none;fill:#54CC96;}
	.st1{fill:#FFFFFF;}
	.st2{fill:#8FEABC;}
	.st3{fill:#28B270;}
</style>
<rect x="0" y="0" class="st0" width="300" height="70"/>
<g>
	<polygon class="st1" points="18.55,68.69 1.55,60.69 1.55,43.69 18.55,51.69 	"/>
	<polygon class="st1" points="39.27,68.01 22.27,60.01 22.27,43.01 39.27,51.01 	"/>
	<polygon class="st1" points="60.05,68.01 43.05,60.01 43.05,43.01 60.05,51.01 	"/>
	<polygon class="st2" points="39.27,47.01 22.27,39.01 22.27,22.01 39.27,30.01 	"/>
	<polygon class="st2" points="60.05,47.01 43.05,39.01 43.05,22.01 60.05,30.01 	"/>
	<polygon class="st3" points="60.05,26.01 43.05,18.01 43.05,1.01 60.05,9.01 	"/>
</g>
<g>
	<path class="st1" d="M74.2,15.74c0.83-0.75,1.92-1.12,3.28-1.12s2.44,0.37,3.28,1.12c0.83,0.75,1.25,1.71,1.25,2.89
		c0,1.14-0.42,2.09-1.25,2.83c-0.83,0.75-1.92,1.12-3.28,1.12s-2.44-0.37-3.28-1.12c-0.83-0.75-1.25-1.69-1.25-2.83
		C72.95,17.45,73.36,16.49,74.2,15.74z M81.11,26.9V55.7h-7.33V26.9H81.11z"/>
	<path class="st1" d="M111.01,29.76c1.98,2.18,2.96,5.25,2.96,9.2V55.7h-7.28V39.79c0-2.29-0.59-4.06-1.77-5.33
		c-1.18-1.26-2.79-1.9-4.84-1.9c-2.08,0-3.74,0.68-4.99,2.03c-1.25,1.35-1.87,3.29-1.87,5.82V55.7H85.9V26.9h7.33v5.77
		c0.76-1.94,2.02-3.46,3.77-4.55c1.75-1.09,3.77-1.64,6.06-1.64C106.38,26.48,109.04,27.57,111.01,29.76z"/>
	<path class="st1" d="M136.05,28.25c1.71,1.14,2.96,2.69,3.72,4.63V17.22h7.28V55.7h-7.28v-6.03c-0.76,1.94-2,3.49-3.72,4.65
		c-1.72,1.16-3.79,1.74-6.21,1.74c-2.43,0-4.61-0.59-6.55-1.77c-1.94-1.18-3.46-2.89-4.55-5.12c-1.09-2.24-1.64-4.86-1.64-7.88
		c0-3.02,0.55-5.64,1.64-7.88c1.09-2.24,2.61-3.94,4.55-5.12c1.94-1.18,4.13-1.77,6.55-1.77C132.26,26.53,134.33,27.1,136.05,28.25z
		 M126.61,35.16c-1.39,1.49-2.08,3.54-2.08,6.14c0,2.6,0.69,4.64,2.08,6.11c1.39,1.47,3.22,2.21,5.51,2.21
		c2.22,0,4.05-0.75,5.48-2.26c1.44-1.51,2.16-3.53,2.16-6.06c0-2.57-0.72-4.6-2.16-6.11c-1.44-1.51-3.27-2.26-5.48-2.26
		C129.83,32.93,128,33.67,126.61,35.16z"/>
	<path class="st1" d="M152.25,15.74c0.83-0.75,1.92-1.12,3.28-1.12c1.35,0,2.44,0.37,3.28,1.12c0.83,0.75,1.25,1.71,1.25,2.89
		c0,1.14-0.42,2.09-1.25,2.83c-0.83,0.75-1.92,1.12-3.28,1.12c-1.35,0-2.44-0.37-3.28-1.12c-0.83-0.75-1.25-1.69-1.25-2.83
		C151,17.45,151.42,16.49,152.25,15.74z M159.16,26.9V55.7h-7.33V26.9H159.16z"/>
	<path class="st1" d="M186.18,29.55c2.48,2.01,4.03,4.75,4.65,8.22h-7.75c-0.31-1.52-1.02-2.73-2.13-3.61
		c-1.11-0.88-2.51-1.33-4.21-1.33c-1.94,0-3.56,0.72-4.86,2.16c-1.3,1.44-1.95,3.54-1.95,6.32s0.65,4.88,1.95,6.32
		s2.92,2.16,4.86,2.16c1.7,0,3.1-0.44,4.21-1.33c1.11-0.88,1.82-2.09,2.13-3.61h7.75c-0.62,3.47-2.18,6.21-4.65,8.22
		c-2.48,2.01-5.57,3.02-9.28,3.02c-2.81,0-5.3-0.6-7.49-1.79c-2.18-1.2-3.88-2.9-5.1-5.12c-1.21-2.22-1.82-4.84-1.82-7.85
		c0-3.02,0.61-5.64,1.82-7.88c1.21-2.24,2.91-3.94,5.1-5.12c2.18-1.18,4.68-1.77,7.49-1.77C180.6,26.53,183.7,27.54,186.18,29.55z"
		/>
	<path class="st1" d="M211.68,28.25c1.73,1.14,2.96,2.69,3.69,4.63V26.9h7.28V55.7h-7.28v-6.03c-0.73,1.94-1.96,3.49-3.69,4.65
		c-1.73,1.16-3.81,1.74-6.24,1.74c-2.43,0-4.61-0.59-6.55-1.77c-1.94-1.18-3.46-2.89-4.55-5.12c-1.09-2.24-1.64-4.86-1.64-7.88
		c0-3.02,0.55-5.64,1.64-7.88c1.09-2.24,2.61-3.94,4.55-5.12c1.94-1.18,4.13-1.77,6.55-1.77C207.87,26.53,209.95,27.1,211.68,28.25z
		 M202.22,35.16c-1.39,1.49-2.08,3.54-2.08,6.14c0,2.6,0.69,4.64,2.08,6.11c1.39,1.47,3.22,2.21,5.51,2.21
		c2.22,0,4.05-0.75,5.49-2.26s2.16-3.53,2.16-6.06c0-2.57-0.72-4.6-2.16-6.11c-1.44-1.51-3.27-2.26-5.49-2.26
		C205.44,32.93,203.6,33.67,202.22,35.16z"/>
	<path class="st1" d="M242.83,49.41v6.29h-3.85c-3.22,0-5.69-0.78-7.41-2.34c-1.72-1.56-2.57-4.16-2.57-7.8V33.08h-4V26.9h4v-7.12
		h7.33v7.12h6.45v6.19h-6.45v12.58c0,1.39,0.28,2.36,0.83,2.91c0.55,0.55,1.49,0.83,2.81,0.83H242.83z"/>
	<path class="st1" d="M267.09,28.3c2.24,1.18,4,2.89,5.28,5.12c1.28,2.24,1.92,4.86,1.92,7.88c0,3.01-0.64,5.63-1.92,7.85
		c-1.28,2.22-3.04,3.93-5.28,5.12c-2.24,1.2-4.76,1.79-7.57,1.79c-2.81,0-5.33-0.6-7.57-1.79c-2.24-1.2-4-2.9-5.28-5.12
		c-1.28-2.22-1.92-4.84-1.92-7.85c0-3.02,0.64-5.64,1.92-7.88c1.28-2.24,3.04-3.94,5.28-5.12c2.24-1.18,4.76-1.77,7.57-1.77
		C262.33,26.53,264.85,27.12,267.09,28.3z M254.32,35.03c-1.42,1.44-2.13,3.53-2.13,6.27s0.71,4.83,2.13,6.27
		c1.42,1.44,3.15,2.16,5.2,2.16s3.78-0.72,5.2-2.16c1.42-1.44,2.13-3.53,2.13-6.27s-0.71-4.83-2.13-6.27
		c-1.42-1.44-3.15-2.16-5.2-2.16S255.74,33.6,254.32,35.03z"/>
	<path class="st1" d="M289.21,28.07c1.77-1.06,3.74-1.59,5.93-1.59v7.85h-2.13c-5.37,0-8.06,2.5-8.06,7.49V55.7h-7.33V26.9h7.33
		v5.51C286.02,30.57,287.45,29.12,289.21,28.07z"/>
</g>
</svg>
